<svg width="78" height="95" viewBox="0 0 78 95" fill="none" xmlns="http://www.w3.org/2000/svg">
<path d="M8.648 15.084C7.90133 15.084 7.21533 14.916 6.59 14.58C5.96467 14.244 5.47 13.7587 5.106 13.124C4.742 12.48 4.56 11.7287 4.56 10.87C4.56 9.96467 4.77 9.10133 5.19 8.28C5.61933 7.44933 6.17 6.78667 6.842 6.292C7.52333 5.788 8.21867 5.536 8.928 5.536C9.22667 5.536 9.52067 5.58267 9.81 5.676C10.1087 5.76933 10.3747 5.886 10.608 6.026C10.72 5.914 10.86 5.858 11.028 5.858C11.2147 5.858 11.3687 5.92333 11.49 6.054C11.6113 6.17533 11.672 6.32467 11.672 6.502V7.398C11.672 7.58467 11.602 7.748 11.462 7.888C11.3313 8.028 11.168 8.098 10.972 8.098C10.7853 8.098 10.6267 8.042 10.496 7.93C10.3747 7.818 10.314 7.68733 10.314 7.538V7.44C9.96867 7.076 9.474 6.894 8.83 6.894C8.36333 6.894 7.906 7.08533 7.458 7.468C7.01 7.84133 6.646 8.336 6.366 8.952C6.09533 9.568 5.96 10.2073 5.96 10.87C5.96 11.458 6.08133 11.9713 6.324 12.41C6.56667 12.8393 6.88867 13.1707 7.29 13.404C7.70067 13.628 8.15333 13.74 8.648 13.74C9.55333 13.74 10.3 13.3527 10.888 12.578C10.972 12.4753 11.056 12.4053 11.14 12.368C11.224 12.3213 11.322 12.298 11.434 12.298C11.63 12.298 11.7933 12.3633 11.924 12.494C12.064 12.6153 12.134 12.7833 12.134 12.998C12.134 13.1567 12.092 13.2967 12.008 13.418C11.6253 13.9593 11.14 14.3747 10.552 14.664C9.97333 14.944 9.33867 15.084 8.648 15.084ZM15.8242 15.084C15.2922 15.084 14.8022 14.9393 14.3542 14.65C13.9155 14.3607 13.5702 13.9687 13.3182 13.474C13.0662 12.97 12.9402 12.424 12.9402 11.836C12.9402 11.1733 13.0895 10.5573 13.3882 9.988C13.6869 9.40933 14.0882 8.952 14.5922 8.616C15.0962 8.27067 15.6375 8.098 16.2162 8.098C16.7482 8.098 17.2335 8.24733 17.6722 8.546C18.1202 8.84467 18.4702 9.24133 18.7222 9.736C18.9835 10.2307 19.1142 10.7627 19.1142 11.332C19.1142 12.004 18.9649 12.6293 18.6662 13.208C18.3675 13.7773 17.9615 14.2347 17.4482 14.58C16.9442 14.916 16.4029 15.084 15.8242 15.084ZM15.8242 13.824C16.1509 13.824 16.4635 13.712 16.7622 13.488C17.0609 13.264 17.2989 12.9653 17.4762 12.592C17.6535 12.2187 17.7422 11.822 17.7422 11.402C17.7422 11.0473 17.6722 10.716 17.5322 10.408C17.3922 10.0907 17.2009 9.83867 16.9582 9.652C16.7155 9.456 16.4495 9.358 16.1602 9.358C15.8335 9.358 15.5255 9.47467 15.2362 9.708C14.9562 9.932 14.7322 10.2353 14.5642 10.618C14.3962 10.9913 14.3122 11.3927 14.3122 11.822C14.3122 12.242 14.3822 12.6013 14.5222 12.9C14.6715 13.1987 14.8582 13.4273 15.0822 13.586C15.3155 13.7447 15.5629 13.824 15.8242 13.824ZM21.2926 15.084C21.1153 15.084 20.9566 15.0187 20.8166 14.888C20.686 14.7573 20.6206 14.6033 20.6206 14.426V8.77C20.6206 8.59267 20.686 8.43867 20.8166 8.308C20.9566 8.168 21.1153 8.098 21.2926 8.098C21.4793 8.098 21.638 8.168 21.7686 8.308C21.8993 8.43867 21.9646 8.59267 21.9646 8.77V9.75C22.5433 8.64867 23.3133 8.098 24.2746 8.098C24.6573 8.098 24.9886 8.21 25.2686 8.434C25.558 8.658 25.7633 8.994 25.8846 9.442C26.482 8.546 27.21 8.098 28.0686 8.098C28.6473 8.098 29.1046 8.322 29.4406 8.77C29.7766 9.20867 29.9446 9.87133 29.9446 10.758V14.426C29.9446 14.6033 29.8746 14.7573 29.7346 14.888C29.604 15.0187 29.45 15.084 29.2726 15.084C29.086 15.084 28.9273 15.0187 28.7966 14.888C28.666 14.7573 28.6006 14.6033 28.6006 14.426V10.674C28.6006 10.2447 28.54 9.92267 28.4186 9.708C28.2973 9.49333 28.106 9.386 27.8446 9.386C27.574 9.386 27.3033 9.49333 27.0326 9.708C26.762 9.92267 26.538 10.2167 26.3606 10.59C26.1926 10.9633 26.1086 11.374 26.1086 11.822V14.426C26.1086 14.6127 26.0433 14.7713 25.9126 14.902C25.782 15.0233 25.6233 15.084 25.4366 15.084C25.2593 15.084 25.1006 15.0187 24.9606 14.888C24.83 14.7573 24.7646 14.6033 24.7646 14.426V10.674C24.7646 10.226 24.7086 9.89933 24.5966 9.694C24.494 9.48867 24.3213 9.386 24.0786 9.386C23.78 9.386 23.486 9.50733 23.1966 9.75C22.9073 9.98333 22.6553 10.268 22.4406 10.604C22.2726 10.884 22.1466 11.164 22.0626 11.444C21.988 11.724 21.9506 12.032 21.9506 12.368L21.9646 14.426C21.9646 14.6033 21.8993 14.7573 21.7686 14.888C21.638 15.0187 21.4793 15.084 21.2926 15.084ZM32.4352 17.562C32.2579 17.562 32.0992 17.492 31.9592 17.352C31.8285 17.2213 31.7632 17.0673 31.7632 16.89V8.77C31.7632 8.574 31.8285 8.41067 31.9592 8.28C32.0899 8.14933 32.2532 8.084 32.4492 8.084C32.6079 8.084 32.7525 8.14467 32.8832 8.266C33.0232 8.38733 33.0932 8.546 33.0932 8.742V8.896C33.5692 8.35467 34.2692 8.084 35.1932 8.084C35.5759 8.084 35.9445 8.20533 36.2992 8.448C36.6632 8.69067 36.9619 9.05467 37.1952 9.54C37.4285 10.016 37.5452 10.59 37.5452 11.262C37.5452 11.8687 37.4519 12.452 37.2652 13.012C37.0785 13.572 36.7519 14.0433 36.2852 14.426C35.8279 14.7993 35.2119 14.986 34.4372 14.986C33.9892 14.986 33.5459 14.86 33.1072 14.608V16.89C33.1072 17.0673 33.0372 17.2213 32.8972 17.352C32.7665 17.492 32.6125 17.562 32.4352 17.562ZM34.5212 13.698C35.0625 13.698 35.4872 13.4973 35.7952 13.096C36.1125 12.6853 36.2712 12.074 36.2712 11.262C36.2712 10.6647 36.1545 10.198 35.9212 9.862C35.6972 9.51667 35.4172 9.344 35.0812 9.344C34.6052 9.344 34.1992 9.43733 33.8632 9.624C33.5365 9.81067 33.2845 10.0207 33.1072 10.254V13.362C33.6765 13.586 34.1479 13.698 34.5212 13.698ZM42.088 15.084C41.4253 15.084 40.828 14.944 40.296 14.664C39.7733 14.3747 39.3627 13.9687 39.064 13.446C38.7653 12.914 38.616 12.2887 38.616 11.57C38.616 10.982 38.7467 10.422 39.008 9.89C39.2787 9.34867 39.652 8.91467 40.128 8.588C40.6133 8.26133 41.164 8.098 41.78 8.098C42.3493 8.098 42.8347 8.21467 43.236 8.448C43.6467 8.672 43.9547 8.94267 44.16 9.26C44.3653 9.57733 44.468 9.862 44.468 10.114C44.468 10.2353 44.4307 10.352 44.356 10.464C44.2813 10.576 44.174 10.674 44.034 10.758L40.282 12.914C40.4127 13.2033 40.6413 13.4273 40.968 13.586C41.304 13.7447 41.6773 13.824 42.088 13.824C42.6293 13.824 43.0913 13.6233 43.474 13.222C43.6233 13.0727 43.7773 12.998 43.936 12.998C44.1227 12.998 44.2767 13.0587 44.398 13.18C44.5287 13.3013 44.594 13.4507 44.594 13.628C44.594 13.7773 44.538 13.9173 44.426 14.048C44.1647 14.3373 43.8147 14.5847 43.376 14.79C42.9467 14.986 42.5173 15.084 42.088 15.084ZM43.082 9.946C42.97 9.75 42.8113 9.60533 42.606 9.512C42.4007 9.40933 42.158 9.358 41.878 9.358C41.346 9.358 40.898 9.54 40.534 9.904C40.1793 10.268 39.974 10.716 39.918 11.248C39.8993 11.388 39.89 11.556 39.89 11.752L43.082 9.946ZM47.1589 15.098C46.9816 15.098 46.8229 15.0327 46.6829 14.902C46.5523 14.7713 46.4869 14.6173 46.4869 14.44V9.442H45.3809C45.1943 9.442 45.0356 9.37667 44.9049 9.246C44.7743 9.106 44.7089 8.94733 44.7089 8.77C44.7089 8.56467 44.7789 8.40133 44.9189 8.28C45.0589 8.14933 45.2223 8.084 45.4089 8.084H46.4869V6.586C46.4869 6.40867 46.5523 6.25 46.6829 6.11C46.8136 5.97 46.9723 5.9 47.1589 5.9C47.3549 5.9 47.5136 5.97 47.6349 6.11C47.7656 6.24067 47.8309 6.39933 47.8309 6.586V8.084H49.0209C49.2076 8.084 49.3663 8.14933 49.4969 8.28C49.6276 8.41067 49.6929 8.574 49.6929 8.77C49.6929 8.94733 49.6276 9.106 49.4969 9.246C49.3663 9.37667 49.2076 9.442 49.0209 9.442H47.8309V14.44C47.8309 14.6173 47.7656 14.7713 47.6349 14.902C47.5043 15.0327 47.3456 15.098 47.1589 15.098ZM53.2169 15.084C52.5542 15.084 51.9569 14.944 51.4249 14.664C50.9022 14.3747 50.4916 13.9687 50.1929 13.446C49.8942 12.914 49.7449 12.2887 49.7449 11.57C49.7449 10.982 49.8756 10.422 50.1369 9.89C50.4076 9.34867 50.7809 8.91467 51.2569 8.588C51.7422 8.26133 52.2929 8.098 52.9089 8.098C53.4782 8.098 53.9636 8.21467 54.3649 8.448C54.7756 8.672 55.0836 8.94267 55.2889 9.26C55.4942 9.57733 55.5969 9.862 55.5969 10.114C55.5969 10.2353 55.5596 10.352 55.4849 10.464C55.4102 10.576 55.3029 10.674 55.1629 10.758L51.4109 12.914C51.5416 13.2033 51.7702 13.4273 52.0969 13.586C52.4329 13.7447 52.8062 13.824 53.2169 13.824C53.7582 13.824 54.2202 13.6233 54.6029 13.222C54.7522 13.0727 54.9062 12.998 55.0649 12.998C55.2516 12.998 55.4056 13.0587 55.5269 13.18C55.6576 13.3013 55.7229 13.4507 55.7229 13.628C55.7229 13.7773 55.6669 13.9173 55.5549 14.048C55.2936 14.3373 54.9436 14.5847 54.5049 14.79C54.0756 14.986 53.6462 15.084 53.2169 15.084ZM54.2109 9.946C54.0989 9.75 53.9402 9.60533 53.7349 9.512C53.5296 9.40933 53.2869 9.358 53.0069 9.358C52.4749 9.358 52.0269 9.54 51.6629 9.904C51.3082 10.268 51.1029 10.716 51.0469 11.248C51.0282 11.388 51.0189 11.556 51.0189 11.752L54.2109 9.946Z" fill="#5998AA"/>
</svg>
