<svg width="78" height="95" viewBox="0 0 78 95" fill="none" xmlns="http://www.w3.org/2000/svg">
<path d="M5.736 15.07C5.55867 15.0793 5.4 15.014 5.26 14.874C5.12 14.734 5.05 14.5753 5.05 14.398V6.236C5.05 6.04933 5.11533 5.89067 5.246 5.76C5.386 5.62 5.554 5.55 5.75 5.55C5.93667 5.55 6.09533 5.62 6.226 5.76C6.366 5.89067 6.436 6.04933 6.436 6.236V13.656L10.244 13.404C10.44 13.3947 10.6033 13.4553 10.734 13.586C10.8647 13.7073 10.93 13.8707 10.93 14.076C10.93 14.244 10.8647 14.4027 10.734 14.552C10.6127 14.692 10.468 14.7667 10.3 14.776L5.736 15.07ZM15.1817 15.084C14.5191 15.084 13.9217 14.944 13.3897 14.664C12.8671 14.3747 12.4564 13.9687 12.1577 13.446C11.8591 12.914 11.7097 12.2887 11.7097 11.57C11.7097 10.982 11.8404 10.422 12.1017 9.89C12.3724 9.34867 12.7457 8.91467 13.2217 8.588C13.7071 8.26133 14.2577 8.098 14.8737 8.098C15.4431 8.098 15.9284 8.21467 16.3297 8.448C16.7404 8.672 17.0484 8.94267 17.2537 9.26C17.4591 9.57733 17.5617 9.862 17.5617 10.114C17.5617 10.2353 17.5244 10.352 17.4497 10.464C17.3751 10.576 17.2677 10.674 17.1277 10.758L13.3757 12.914C13.5064 13.2033 13.7351 13.4273 14.0617 13.586C14.3977 13.7447 14.7711 13.824 15.1817 13.824C15.7231 13.824 16.1851 13.6233 16.5677 13.222C16.7171 13.0727 16.8711 12.998 17.0297 12.998C17.2164 12.998 17.3704 13.0587 17.4917 13.18C17.6224 13.3013 17.6877 13.4507 17.6877 13.628C17.6877 13.7773 17.6317 13.9173 17.5197 14.048C17.2584 14.3373 16.9084 14.5847 16.4697 14.79C16.0404 14.986 15.6111 15.084 15.1817 15.084ZM16.1757 9.946C16.0637 9.75 15.9051 9.60533 15.6997 9.512C15.4944 9.40933 15.2517 9.358 14.9717 9.358C14.4397 9.358 13.9917 9.54 13.6277 9.904C13.2731 10.268 13.0677 10.716 13.0117 11.248C12.9931 11.388 12.9837 11.556 12.9837 11.752L16.1757 9.946ZM23.5147 15.224C23.328 15.224 23.174 15.1727 23.0527 15.07C22.9407 14.9673 22.8847 14.832 22.8847 14.664V14.468C22.502 14.8787 21.97 15.084 21.2887 15.084C20.7754 15.084 20.3134 14.958 19.9027 14.706C19.492 14.454 19.17 14.0993 18.9367 13.642C18.7034 13.1753 18.5867 12.648 18.5867 12.06C18.5867 11.4067 18.7267 10.7767 19.0067 10.17C19.2867 9.554 19.6787 9.05467 20.1827 8.672C20.696 8.28933 21.284 8.098 21.9467 8.098C22.376 8.098 22.7634 8.15867 23.1087 8.28C23.454 8.392 23.8134 8.532 24.1867 8.7V14.524C24.1867 14.7107 24.1214 14.874 23.9907 15.014C23.86 15.154 23.7014 15.224 23.5147 15.224ZM21.3867 13.782C21.6574 13.782 21.9187 13.726 22.1707 13.614C22.432 13.502 22.6467 13.3667 22.8147 13.208L22.8567 9.554C22.586 9.442 22.292 9.386 21.9747 9.386C21.5734 9.386 21.2187 9.512 20.9107 9.764C20.6027 10.0067 20.3647 10.3333 20.1967 10.744C20.0287 11.1453 19.9447 11.5747 19.9447 12.032C19.9447 12.6013 20.0707 13.0353 20.3227 13.334C20.5747 13.6327 20.9294 13.782 21.3867 13.782ZM26.8301 15.084C26.6527 15.084 26.4941 15.0187 26.3541 14.888C26.2141 14.7573 26.1441 14.608 26.1441 14.44V8.77C26.1441 8.58333 26.2094 8.42467 26.3401 8.294C26.4801 8.16333 26.6434 8.098 26.8301 8.098C27.0167 8.098 27.1754 8.16333 27.3061 8.294C27.4461 8.42467 27.5161 8.58333 27.5161 8.77V9.19C27.9734 8.44333 28.5987 8.07 29.3921 8.07C29.8681 8.07 30.2087 8.20067 30.4141 8.462C30.6287 8.72333 30.7361 9.036 30.7361 9.4V9.82C30.7361 10.0067 30.6707 10.1653 30.5401 10.296C30.4187 10.4173 30.2647 10.478 30.0781 10.478C29.8541 10.478 29.6861 10.4127 29.5741 10.282C29.4714 10.1513 29.4201 9.99267 29.4201 9.806V9.624C29.4201 9.47467 29.3174 9.4 29.1121 9.4C28.9441 9.4 28.7481 9.484 28.5241 9.652C28.3094 9.82 28.1321 9.99733 27.9921 10.184C27.7961 10.4267 27.6654 10.6693 27.6001 10.912C27.5441 11.1547 27.5161 11.444 27.5161 11.78L27.5021 14.44C27.5021 14.608 27.4321 14.7573 27.2921 14.888C27.1521 15.0187 26.9981 15.084 26.8301 15.084ZM32.4625 15.084C32.2852 15.084 32.1265 15.0187 31.9865 14.888C31.8559 14.7573 31.7905 14.608 31.7905 14.44V8.756C31.7905 8.56933 31.8605 8.41067 32.0005 8.28C32.1405 8.14933 32.3039 8.084 32.4905 8.084C32.6679 8.084 32.8172 8.14933 32.9385 8.28C33.0692 8.41067 33.1345 8.56933 33.1345 8.756V9.82C33.3959 9.26 33.7272 8.83533 34.1285 8.546C34.5299 8.24733 34.9685 8.098 35.4445 8.098C35.9672 8.098 36.3825 8.21933 36.6905 8.462C36.9985 8.70467 37.2225 9.106 37.3625 9.666C37.5025 10.2167 37.5725 10.982 37.5725 11.962L37.5585 14.412C37.5585 14.5893 37.4979 14.748 37.3765 14.888C37.2552 15.0187 37.1012 15.084 36.9145 15.084C36.7372 15.084 36.5785 15.0187 36.4385 14.888C36.3079 14.748 36.2425 14.594 36.2425 14.426V12.102C36.2425 11.374 36.2099 10.814 36.1445 10.422C36.0792 10.03 35.9812 9.764 35.8505 9.624C35.7199 9.47467 35.5425 9.4 35.3185 9.4C35.0385 9.4 34.7585 9.52133 34.4785 9.764C34.1985 9.99733 33.9372 10.3333 33.6945 10.772C33.4799 11.1547 33.3305 11.528 33.2465 11.892C33.1625 12.256 33.1205 12.6947 33.1205 13.208V14.384C33.1205 14.5893 33.0599 14.7573 32.9385 14.888C32.8265 15.0187 32.6679 15.084 32.4625 15.084Z" fill="#6D00F9"/>
</svg>
