<svg width="78" height="95" viewBox="0 0 78 95" fill="none" xmlns="http://www.w3.org/2000/svg">
<path d="M5.05 15.084C4.84467 15.084 4.68133 15.0233 4.56 14.902C4.448 14.7807 4.392 14.6453 4.392 14.496C4.392 14.3467 4.41067 14.1927 4.448 14.034L6.184 6.096C6.22133 5.928 6.30067 5.79733 6.422 5.704C6.54333 5.60133 6.69267 5.55 6.87 5.55C7.19667 5.55 7.41133 5.70867 7.514 6.026L9.488 12.228L11.728 5.998C11.84 5.69933 12.0733 5.55 12.428 5.55C12.5867 5.55 12.7173 5.60133 12.82 5.704C12.932 5.79733 13.0067 5.928 13.044 6.096L14.822 14.02C14.8687 14.2347 14.892 14.3747 14.892 14.44C14.892 14.6173 14.8267 14.7713 14.696 14.902C14.5653 15.0233 14.402 15.084 14.206 15.084C14.0193 15.084 13.87 15.0373 13.758 14.944C13.646 14.8413 13.5713 14.7107 13.534 14.552L12.246 8.7L10.09 14.636C10.0433 14.776 9.95933 14.888 9.838 14.972C9.71667 15.0467 9.58133 15.084 9.432 15.084C9.10533 15.084 8.89067 14.9253 8.788 14.608L6.968 8.91L5.736 14.538C5.69867 14.706 5.61933 14.8413 5.498 14.944C5.37667 15.0373 5.22733 15.084 5.05 15.084ZM19.2833 15.084C18.6206 15.084 18.0233 14.944 17.4913 14.664C16.9686 14.3747 16.558 13.9687 16.2593 13.446C15.9606 12.914 15.8113 12.2887 15.8113 11.57C15.8113 10.982 15.942 10.422 16.2033 9.89C16.474 9.34867 16.8473 8.91467 17.3233 8.588C17.8086 8.26133 18.3593 8.098 18.9753 8.098C19.5446 8.098 20.03 8.21467 20.4313 8.448C20.842 8.672 21.15 8.94267 21.3553 9.26C21.5606 9.57733 21.6633 9.862 21.6633 10.114C21.6633 10.2353 21.626 10.352 21.5513 10.464C21.4766 10.576 21.3693 10.674 21.2293 10.758L17.4773 12.914C17.608 13.2033 17.8366 13.4273 18.1633 13.586C18.4993 13.7447 18.8726 13.824 19.2833 13.824C19.8246 13.824 20.2866 13.6233 20.6693 13.222C20.8186 13.0727 20.9726 12.998 21.1313 12.998C21.318 12.998 21.472 13.0587 21.5933 13.18C21.724 13.3013 21.7893 13.4507 21.7893 13.628C21.7893 13.7773 21.7333 13.9173 21.6213 14.048C21.36 14.3373 21.01 14.5847 20.5713 14.79C20.142 14.986 19.7126 15.084 19.2833 15.084ZM20.2773 9.946C20.1653 9.75 20.0066 9.60533 19.8013 9.512C19.596 9.40933 19.3533 9.358 19.0733 9.358C18.5413 9.358 18.0933 9.54 17.7293 9.904C17.3746 10.268 17.1693 10.716 17.1133 11.248C17.0946 11.388 17.0853 11.556 17.0853 11.752L20.2773 9.946ZM23.8083 15.084C23.6309 15.084 23.4723 15.0187 23.3323 14.888C23.2016 14.7573 23.1363 14.608 23.1363 14.44V8.756C23.1363 8.56933 23.2063 8.41067 23.3463 8.28C23.4863 8.14933 23.6496 8.084 23.8363 8.084C24.0136 8.084 24.1629 8.14933 24.2843 8.28C24.4149 8.41067 24.4803 8.56933 24.4803 8.756V9.82C24.7416 9.26 25.0729 8.83533 25.4743 8.546C25.8756 8.24733 26.3143 8.098 26.7903 8.098C27.3129 8.098 27.7283 8.21933 28.0363 8.462C28.3443 8.70467 28.5683 9.106 28.7083 9.666C28.8483 10.2167 28.9183 10.982 28.9183 11.962L28.9043 14.412C28.9043 14.5893 28.8436 14.748 28.7223 14.888C28.6009 15.0187 28.4469 15.084 28.2603 15.084C28.0829 15.084 27.9243 15.0187 27.7843 14.888C27.6536 14.748 27.5883 14.594 27.5883 14.426V12.102C27.5883 11.374 27.5556 10.814 27.4903 10.422C27.4249 10.03 27.3269 9.764 27.1963 9.624C27.0656 9.47467 26.8883 9.4 26.6643 9.4C26.3843 9.4 26.1043 9.52133 25.8243 9.764C25.5443 9.99733 25.2829 10.3333 25.0403 10.772C24.8256 11.1547 24.6763 11.528 24.5923 11.892C24.5083 12.256 24.4663 12.6947 24.4663 13.208V14.384C24.4663 14.5893 24.4056 14.7573 24.2843 14.888C24.1723 15.0187 24.0136 15.084 23.8083 15.084ZM31.9558 15.098C31.7785 15.098 31.6198 15.0327 31.4798 14.902C31.3491 14.7713 31.2838 14.6173 31.2838 14.44V9.442H30.1778C29.9911 9.442 29.8325 9.37667 29.7018 9.246C29.5711 9.106 29.5058 8.94733 29.5058 8.77C29.5058 8.56467 29.5758 8.40133 29.7158 8.28C29.8558 8.14933 30.0191 8.084 30.2058 8.084H31.2838V6.586C31.2838 6.40867 31.3491 6.25 31.4798 6.11C31.6105 5.97 31.7691 5.9 31.9558 5.9C32.1518 5.9 32.3105 5.97 32.4318 6.11C32.5625 6.24067 32.6278 6.39933 32.6278 6.586V8.084H33.8178C34.0045 8.084 34.1631 8.14933 34.2938 8.28C34.4245 8.41067 34.4898 8.574 34.4898 8.77C34.4898 8.94733 34.4245 9.106 34.2938 9.246C34.1631 9.37667 34.0045 9.442 33.8178 9.442H32.6278V14.44C32.6278 14.6173 32.5625 14.7713 32.4318 14.902C32.3011 15.0327 32.1425 15.098 31.9558 15.098ZM37.4258 15.084C36.8938 15.084 36.4038 14.9393 35.9558 14.65C35.5171 14.3607 35.1718 13.9687 34.9198 13.474C34.6678 12.97 34.5418 12.424 34.5418 11.836C34.5418 11.1733 34.6911 10.5573 34.9898 9.988C35.2884 9.40933 35.6898 8.952 36.1938 8.616C36.6978 8.27067 37.2391 8.098 37.8178 8.098C38.3498 8.098 38.8351 8.24733 39.2738 8.546C39.7218 8.84467 40.0718 9.24133 40.3238 9.736C40.5851 10.2307 40.7158 10.7627 40.7158 11.332C40.7158 12.004 40.5664 12.6293 40.2678 13.208C39.9691 13.7773 39.5631 14.2347 39.0498 14.58C38.5458 14.916 38.0044 15.084 37.4258 15.084ZM37.4258 13.824C37.7524 13.824 38.0651 13.712 38.3638 13.488C38.6624 13.264 38.9004 12.9653 39.0778 12.592C39.2551 12.2187 39.3438 11.822 39.3438 11.402C39.3438 11.0473 39.2738 10.716 39.1338 10.408C38.9938 10.0907 38.8024 9.83867 38.5598 9.652C38.3171 9.456 38.0511 9.358 37.7618 9.358C37.4351 9.358 37.1271 9.47467 36.8378 9.708C36.5578 9.932 36.3338 10.2353 36.1658 10.618C35.9978 10.9913 35.9138 11.3927 35.9138 11.822C35.9138 12.242 35.9838 12.6013 36.1238 12.9C36.2731 13.1987 36.4598 13.4273 36.6838 13.586C36.9171 13.7447 37.1644 13.824 37.4258 13.824ZM42.9082 15.084C42.7309 15.084 42.5722 15.0187 42.4322 14.888C42.2922 14.7573 42.2222 14.608 42.2222 14.44V8.77C42.2222 8.58333 42.2875 8.42467 42.4182 8.294C42.5582 8.16333 42.7215 8.098 42.9082 8.098C43.0949 8.098 43.2535 8.16333 43.3842 8.294C43.5242 8.42467 43.5942 8.58333 43.5942 8.77V9.19C44.0515 8.44333 44.6769 8.07 45.4702 8.07C45.9462 8.07 46.2869 8.20067 46.4922 8.462C46.7069 8.72333 46.8142 9.036 46.8142 9.4V9.82C46.8142 10.0067 46.7489 10.1653 46.6182 10.296C46.4969 10.4173 46.3429 10.478 46.1562 10.478C45.9322 10.478 45.7642 10.4127 45.6522 10.282C45.5495 10.1513 45.4982 9.99267 45.4982 9.806V9.624C45.4982 9.47467 45.3955 9.4 45.1902 9.4C45.0222 9.4 44.8262 9.484 44.6022 9.652C44.3875 9.82 44.2102 9.99733 44.0702 10.184C43.8742 10.4267 43.7435 10.6693 43.6782 10.912C43.6222 11.1547 43.5942 11.444 43.5942 11.78L43.5802 14.44C43.5802 14.608 43.5102 14.7573 43.3702 14.888C43.2302 15.0187 43.0762 15.084 42.9082 15.084ZM49.8847 15.084C49.3433 15.084 48.872 14.9673 48.4707 14.734C48.0787 14.4913 47.7753 14.216 47.5607 13.908C47.3553 13.5907 47.2527 13.334 47.2527 13.138C47.2527 12.9513 47.318 12.7973 47.4487 12.676C47.5793 12.5453 47.7333 12.48 47.9107 12.48C48.0693 12.48 48.2 12.522 48.3027 12.606C48.4147 12.69 48.494 12.802 48.5407 12.942C48.6433 13.2313 48.8113 13.46 49.0447 13.628C49.278 13.796 49.5673 13.88 49.9127 13.88C50.2767 13.88 50.5613 13.7913 50.7667 13.614C50.972 13.4367 51.0747 13.236 51.0747 13.012C51.0747 12.7973 50.986 12.6293 50.8087 12.508C50.6407 12.3773 50.2953 12.2327 49.7727 12.074C49.0073 11.8407 48.4567 11.5653 48.1207 11.248C47.7847 10.9213 47.6167 10.4967 47.6167 9.974C47.6167 9.42333 47.836 8.97533 48.2747 8.63C48.7133 8.27533 49.3247 8.098 50.1087 8.098C50.8367 8.098 51.4013 8.25667 51.8027 8.574C52.2133 8.89133 52.4187 9.316 52.4187 9.848C52.4187 10.1373 52.358 10.3613 52.2367 10.52C52.1153 10.6693 51.9427 10.744 51.7187 10.744C51.5227 10.744 51.364 10.6833 51.2427 10.562C51.1213 10.4407 51.0607 10.31 51.0607 10.17C51.0607 10.1233 51.07 10.0673 51.0887 10.002C51.1167 9.92733 51.1307 9.87133 51.1307 9.834C51.1307 9.666 51.0467 9.53067 50.8787 9.428C50.72 9.32533 50.4727 9.274 50.1367 9.274C49.7167 9.274 49.404 9.33467 49.1987 9.456C49.0027 9.57733 48.9047 9.74067 48.9047 9.946C48.9047 10.1607 49.0073 10.338 49.2127 10.478C49.418 10.6087 49.7867 10.758 50.3187 10.926C51.0933 11.1687 51.63 11.4347 51.9287 11.724C52.2367 12.0133 52.3907 12.4193 52.3907 12.942C52.3907 13.2967 52.2833 13.642 52.0687 13.978C51.8633 14.3047 51.5693 14.5707 51.1867 14.776C50.8133 14.9813 50.3793 15.084 49.8847 15.084ZM54.4879 15.098C54.3106 15.098 54.1519 15.0327 54.0119 14.902C53.8813 14.762 53.8159 14.6033 53.8159 14.426V6.362C53.8159 6.17533 53.8813 6.01667 54.0119 5.886C54.1519 5.746 54.3199 5.676 54.5159 5.676C54.7026 5.676 54.8566 5.746 54.9779 5.886C55.0993 6.01667 55.1599 6.17533 55.1599 6.362V9.372C55.4679 8.98 55.8179 8.66733 56.2099 8.434C56.6019 8.19133 56.9939 8.07 57.3859 8.07C58.1233 8.07 58.6413 8.44333 58.9399 9.19C59.2386 9.92733 59.3879 11.0987 59.3879 12.704C59.3879 13.6093 59.3739 14.1927 59.3459 14.454C59.3366 14.6313 59.2666 14.7807 59.1359 14.902C59.0146 15.0233 58.8653 15.084 58.6879 15.084C58.4919 15.084 58.3333 15.0233 58.2119 14.902C58.0906 14.7713 58.0299 14.6127 58.0299 14.426C58.0299 14.2393 58.0346 14.0853 58.0439 13.964L58.0579 12.802C58.0579 11.4487 57.9833 10.5433 57.8339 10.086C57.6939 9.62867 57.5166 9.4 57.3019 9.4C57.0313 9.4 56.7559 9.526 56.4759 9.778C56.1959 10.0207 55.9533 10.296 55.7479 10.604C55.5519 10.9027 55.4119 11.1407 55.3279 11.318C55.2159 11.57 55.1599 11.9013 55.1599 12.312V14.398C55.1599 14.6127 55.0946 14.7853 54.9639 14.916C54.8333 15.0373 54.6746 15.098 54.4879 15.098ZM61.9684 7.51C61.7911 7.51 61.6324 7.44 61.4924 7.3C61.3618 7.16 61.3011 7.00133 61.3104 6.824L61.3244 6.306C61.3338 6.12867 61.4038 5.97467 61.5344 5.844C61.6651 5.71333 61.8191 5.648 61.9964 5.648C62.1738 5.648 62.3278 5.718 62.4584 5.858C62.5984 5.998 62.6638 6.152 62.6544 6.32L62.6404 6.852C62.6311 7.03867 62.5611 7.19733 62.4304 7.328C62.3091 7.44933 62.1551 7.51 61.9684 7.51ZM61.8984 15.084C61.7118 15.084 61.5484 15.0187 61.4084 14.888C61.2778 14.748 61.2124 14.5847 61.2124 14.398L61.2824 8.826C61.2824 8.63933 61.3478 8.48067 61.4784 8.35C61.6184 8.21 61.7818 8.14 61.9684 8.14C62.1644 8.14 62.3278 8.21 62.4584 8.35C62.5891 8.48067 62.6544 8.63933 62.6544 8.826L62.5844 14.398C62.5844 14.5847 62.5144 14.748 62.3744 14.888C62.2438 15.0187 62.0851 15.084 61.8984 15.084ZM65.2887 17.562C65.1114 17.562 64.9527 17.492 64.8127 17.352C64.6821 17.2213 64.6167 17.0673 64.6167 16.89V8.77C64.6167 8.574 64.6821 8.41067 64.8127 8.28C64.9434 8.14933 65.1067 8.084 65.3027 8.084C65.4614 8.084 65.6061 8.14467 65.7367 8.266C65.8767 8.38733 65.9467 8.546 65.9467 8.742V8.896C66.4227 8.35467 67.1227 8.084 68.0467 8.084C68.4294 8.084 68.7981 8.20533 69.1527 8.448C69.5167 8.69067 69.8154 9.05467 70.0487 9.54C70.2821 10.016 70.3987 10.59 70.3987 11.262C70.3987 11.8687 70.3054 12.452 70.1187 13.012C69.9321 13.572 69.6054 14.0433 69.1387 14.426C68.6814 14.7993 68.0654 14.986 67.2907 14.986C66.8427 14.986 66.3994 14.86 65.9607 14.608V16.89C65.9607 17.0673 65.8907 17.2213 65.7507 17.352C65.6201 17.492 65.4661 17.562 65.2887 17.562ZM67.3747 13.698C67.9161 13.698 68.3407 13.4973 68.6487 13.096C68.9661 12.6853 69.1247 12.074 69.1247 11.262C69.1247 10.6647 69.0081 10.198 68.7747 9.862C68.5507 9.51667 68.2707 9.344 67.9347 9.344C67.4587 9.344 67.0527 9.43733 66.7167 9.624C66.3901 9.81067 66.1381 10.0207 65.9607 10.254V13.362C66.5301 13.586 67.0014 13.698 67.3747 13.698Z" fill="#A98727"/>
</svg>
